#N canvas 107 22 1280 709 10;
#X obj 11 18 vsl 15 128 0 100 0 0 empty empty empty 0 -9 0 10 -262144
-1 -1 0 1;
#X obj -4 -160 * 1;
#X obj 62 19 vsl 15 128 0 100 0 0 empty empty empty 0 -9 0 10 -262144
-1 -1 4900 1;
#X obj 113 19 vsl 15 128 0 100 0 0 empty empty empty 0 -9 0 10 -262144
-1 -1 800 1;
#X obj 164 18 vsl 15 128 0 100 0 0 empty empty empty 0 -9 0 10 -262144
-1 -1 600 1;
#X obj 215 19 vsl 15 128 0 100 0 0 empty empty empty 0 -9 0 10 -262144
-1 -1 5700 1;
#X obj 266 19 vsl 15 128 0 100 0 0 empty empty empty 0 -9 0 10 -262144
-1 -1 3800 1;
#X obj 317 18 vsl 15 128 0 100 0 0 empty empty empty 0 -9 0 10 -262144
-1 -1 0 1;
#X obj 368 19 vsl 15 128 0 100 0 0 empty empty empty 0 -9 0 10 -262144
-1 -1 0 1;
#X obj 419 19 vsl 15 128 0 100 0 0 empty empty empty 0 -9 0 10 -262144
-1 -1 0 1;
#X obj 470 18 vsl 15 128 0 100 0 0 empty empty empty 0 -9 0 10 -262144
-1 -1 0 1;
#X obj 47 -161 * 2;
#X obj 98 -159 * 3;
#X obj 149 -160 * 4;
#X obj 200 -159 * 5;
#X obj 251 -159 * 6;
#X obj 302 -160 * 7;
#X obj 353 -160 * 8;
#X obj 404 -159 * 9;
#X obj 455 -160 * 10;
#X obj -4 -114 osc~;
#X obj 47 -114 osc~;
#X obj 98 -114 osc~;
#X obj 149 -114 osc~;
#X obj 200 -114 osc~;
#X obj 251 -114 osc~;
#X obj 302 -114 osc~;
#X obj 353 -114 osc~;
#X obj 404 -114 osc~;
#X obj 455 -114 osc~;
#X obj -4 237 *~;
#X obj 47 238 *~;
#X obj 98 238 *~;
#X obj 149 237 *~;
#X obj 200 238 *~;
#X obj 251 238 *~;
#X obj 302 237 *~;
#X obj 353 238 *~;
#X obj 404 238 *~;
#X obj 455 237 *~;
#X obj 200 363 /~ 100;
#N canvas 0 22 450 278 (subpatch) 0;
#X array array1 100 float 3;
#A 0 0 0 0 0 0 0 0 0 0 0 0 0 0 0 0 0 0 0 0 0 0 0 0 0 0 0 0 0 0 0 0
0 0 0 0 0 0 0 0 0 0 0 0 0 0 0 0 0 0 0 0 0 0 0 0 0 0 0 0 0 0 0 0 0 0
0 0 0 0 0 0 0 0 0 0 0 0 0 0 0 0 0 0 0 0 0 0 0 0 0 0 0 0 0 0 0 0 0 0
0;
#X coords 0 1 99 -1 200 140 1 0 0;
#X restore 8 167 graph;
#X obj 277 419 tabwrite~ array1;
#X obj 277 336 loadbang;
#X msg 277 363 1;
#X obj 200 392 *~;
#X obj 255 277 hsl 128 15 0 1 0 0 empty empty volume -2 -8 0 10 -262144
-1 -1 4000 1;
#X obj 200 419 dac~;
#X obj 255 237 hsl 128 15 0 10000 0 0 pitch empty pitch -2 -8 0 10
-262144 -1 -1 4800 1;
#X obj -89 -252 r pitch;
#X text 256 178 tembre;
#X text 270 167 |;
#X text 270 158 |;
#X text 270 155 ^;
#X obj 277 391 metro 10;
#X connect 0 0 30 1;
#X connect 1 0 20 0;
#X connect 2 0 31 1;
#X connect 3 0 32 1;
#X connect 4 0 33 1;
#X connect 5 0 34 1;
#X connect 6 0 35 1;
#X connect 7 0 36 1;
#X connect 8 0 37 1;
#X connect 9 0 38 1;
#X connect 10 0 39 1;
#X connect 11 0 21 0;
#X connect 12 0 22 0;
#X connect 13 0 23 0;
#X connect 14 0 24 0;
#X connect 15 0 25 0;
#X connect 16 0 26 0;
#X connect 17 0 27 0;
#X connect 18 0 28 0;
#X connect 19 0 29 0;
#X connect 20 0 30 0;
#X connect 21 0 31 0;
#X connect 22 0 32 0;
#X connect 23 0 33 0;
#X connect 24 0 34 0;
#X connect 25 0 35 0;
#X connect 26 0 36 0;
#X connect 27 0 37 0;
#X connect 28 0 38 0;
#X connect 29 0 39 0;
#X connect 30 0 40 0;
#X connect 31 0 40 0;
#X connect 32 0 40 0;
#X connect 33 0 40 0;
#X connect 34 0 40 0;
#X connect 35 0 40 0;
#X connect 36 0 40 0;
#X connect 37 0 40 0;
#X connect 38 0 40 0;
#X connect 39 0 40 0;
#X connect 40 0 42 0;
#X connect 40 0 45 0;
#X connect 43 0 44 0;
#X connect 44 0 54 0;
#X connect 45 0 47 0;
#X connect 45 0 47 1;
#X connect 46 0 45 1;
#X connect 49 0 1 0;
#X connect 49 0 11 0;
#X connect 49 0 12 0;
#X connect 49 0 13 0;
#X connect 49 0 14 0;
#X connect 49 0 15 0;
#X connect 49 0 16 0;
#X connect 49 0 17 0;
#X connect 49 0 18 0;
#X connect 49 0 19 0;
#X connect 54 0 42 0;
#X coords 0 -1 1 1 500 310 1 0 0;
